<?xml version="1.0" standalone="no"?>
<!DOCTYPE svg PUBLIC "-//W3C//DTD SVG 20010904//EN"
 "http://www.w3.org/TR/2001/REC-SVG-20010904/DTD/svg10.dtd">
<svg version="1.0" xmlns="http://www.w3.org/2000/svg"
 width="1000.000000pt" height="1000.000000pt" viewBox="0 0 1000.000000 1000.000000"
 preserveAspectRatio="xMidYMid meet">
<metadata>
Created by potrace 1.11, written by Peter Selinger 2001-2013
</metadata>
<g transform="translate(0.000000,1000.000000) scale(0.100000,-0.100000)"
fill="#000000" stroke="none">
<path d="M5030 9663 c0 -5 -15 -14 -32 -22 -18 -8 -49 -25 -69 -37 -20 -13
-40 -20 -45 -16 -4 4 -4 2 0 -5 4 -8 -2 -15 -19 -19 -14 -3 -25 -10 -25 -15 0
-5 -4 -9 -10 -9 -5 0 -32 -13 -60 -30 -27 -16 -50 -26 -50 -23 0 4 -7 -2 -15
-13 -8 -10 -15 -15 -15 -11 0 5 -7 1 -16 -7 -8 -9 -22 -16 -30 -16 -8 0 -14
-4 -14 -8 0 -5 -18 -16 -40 -26 -22 -10 -46 -23 -53 -29 -6 -7 -38 -25 -70
-41 -31 -16 -57 -33 -57 -38 0 -4 -9 -8 -20 -8 -11 0 -23 -7 -26 -15 -4 -8
-10 -13 -14 -10 -4 3 -18 -4 -31 -14 -13 -10 -34 -21 -46 -25 -13 -4 -23 -11
-23 -15 0 -4 -16 -13 -35 -21 -19 -8 -35 -17 -35 -21 0 -4 -10 -11 -22 -15
-13 -4 -42 -20 -65 -36 -24 -16 -43 -27 -43 -24 0 5 -64 -34 -87 -54 -7 -6
-14 -9 -15 -8 -3 2 -82 -42 -128 -71 -14 -8 -28 -16 -32 -16 -4 0 -17 -8 -28
-17 -11 -10 -27 -18 -35 -18 -8 0 -15 -3 -15 -7 0 -5 -26 -21 -58 -38 -31 -16
-59 -33 -62 -36 -7 -8 -53 -33 -63 -34 -4 0 -11 -5 -15 -12 -4 -6 -20 -15 -35
-18 -15 -4 -27 -11 -27 -15 0 -4 -8 -11 -17 -14 -22 -8 -56 -28 -77 -45 -9 -7
-16 -10 -16 -6 0 4 -16 -5 -35 -19 -19 -15 -35 -25 -35 -22 0 3 -23 -10 -52
-29 -28 -19 -55 -32 -59 -30 -4 3 -9 -2 -13 -10 -3 -8 -12 -15 -21 -15 -8 0
-15 -5 -15 -12 0 -6 -3 -9 -6 -5 -3 3 -30 -10 -59 -29 -30 -19 -58 -34 -63
-34 -5 0 -15 -7 -22 -15 -7 -8 -16 -12 -21 -9 -5 3 -9 1 -9 -5 0 -6 -11 -13
-25 -17 -14 -3 -25 -10 -25 -15 0 -5 -6 -9 -14 -9 -7 0 -19 -7 -26 -15 -7 -9
-15 -14 -17 -11 -2 2 -28 -11 -56 -30 -28 -19 -57 -34 -64 -34 -7 0 -13 -5
-13 -11 0 -5 -4 -7 -10 -4 -5 3 -10 2 -10 -3 0 -9 -71 -48 -79 -43 -2 2 -7 -1
-10 -6 -10 -14 -91 -64 -91 -56 0 5 -4 4 -8 -2 -4 -5 -17 -16 -30 -22 -56 -32
-67 -39 -80 -50 -7 -7 -18 -13 -23 -13 -7 0 -51 -24 -136 -77 -13 -7 -26 -13
-29 -12 -4 0 -10 -3 -13 -8 -8 -11 -231 -138 -243 -138 -5 0 -12 -5 -16 -11
-6 -10 -49 -37 -62 -39 -8 -1 -74 -42 -88 -55 -6 -6 -12 -8 -12 -5 0 4 -13 -3
-29 -14 -15 -11 -31 -18 -35 -14 -3 3 -6 2 -6 -4 0 -6 -17 -20 -37 -30 -74
-38 -108 -58 -111 -65 -2 -5 -8 -8 -14 -8 -5 0 -23 -9 -39 -21 -16 -11 -29
-18 -29 -14 0 3 -6 1 -13 -5 -13 -13 -79 -54 -87 -55 -13 -2 -56 -29 -62 -39
-4 -6 -11 -11 -16 -11 -13 0 -166 -88 -170 -97 -2 -5 -9 -8 -15 -8 -15 -1 -66
-39 -51 -40 11 0 11 -90 0 -108 -3 -6 -2 -14 4 -17 8 -5 8 -11 1 -19 -6 -7 -8
-16 -4 -20 10 -10 10 -126 0 -126 -4 0 -5 -6 0 -12 11 -18 10 -148 -1 -148 -5
0 -4 -5 1 -12 11 -15 11 -147 0 -165 -4 -6 -4 -14 1 -17 11 -6 9 -177 -3 -195
-6 -10 -4 -12 6 -6 12 8 12 6 0 -8 -7 -9 -9 -17 -4 -17 12 0 11 -203 -2 -212
-6 -5 -5 -8 4 -8 10 0 11 -3 2 -14 -7 -8 -8 -17 -3 -19 11 -7 9 -178 -3 -196
-6 -10 -4 -12 6 -6 12 8 12 6 0 -8 -7 -9 -9 -17 -4 -17 11 0 11 -130 0 -147
-4 -6 -4 -14 1 -17 10 -6 9 -87 -1 -104 -4 -6 -3 -14 3 -17 8 -5 7 -11 -1 -21
-6 -8 -7 -14 -2 -14 11 0 10 -270 -1 -289 -7 -10 -5 -12 5 -6 12 8 12 6 0 -8
-7 -9 -9 -17 -4 -17 11 0 11 -130 0 -147 -4 -6 -4 -14 1 -17 10 -6 9 -87 -1
-104 -4 -6 -3 -14 3 -17 8 -5 7 -11 -1 -21 -6 -8 -7 -14 -2 -14 10 0 10 -220
0 -237 -4 -6 -4 -14 1 -17 11 -6 9 -177 -3 -195 -6 -10 -4 -12 6 -6 12 8 12 6
0 -8 -7 -9 -9 -17 -4 -17 12 0 11 -203 -2 -212 -6 -5 -5 -8 4 -8 10 0 11 -3 2
-13 -6 -8 -8 -17 -4 -21 10 -10 10 -126 0 -126 -4 0 -5 -6 0 -12 11 -18 10
-148 -1 -148 -5 0 -4 -5 1 -12 11 -15 11 -147 0 -165 -4 -6 -4 -14 1 -17 11
-6 9 -177 -3 -195 -6 -10 -4 -12 6 -6 12 8 12 6 0 -8 -7 -9 -9 -17 -4 -17 12
0 11 -203 -2 -212 -6 -5 -5 -8 4 -8 10 0 11 -3 2 -13 -6 -8 -8 -17 -4 -21 10
-10 10 -126 0 -126 -4 0 -5 -6 0 -13 11 -17 10 -147 -1 -147 -5 0 -4 -5 1 -12
11 -15 11 -147 0 -165 -4 -6 -4 -14 1 -17 5 -3 8 -29 7 -58 -2 -59 8 -88 30
-88 8 0 15 -5 15 -10 0 -6 3 -9 8 -9 17 3 31 -2 44 -13 7 -7 31 -23 53 -35 22
-11 56 -30 75 -42 19 -11 45 -25 57 -31 13 -5 23 -14 23 -20 0 -6 4 -9 8 -6 4
2 27 -9 51 -25 25 -16 46 -27 49 -24 3 2 12 -3 21 -13 9 -9 23 -18 31 -20 8
-2 17 -8 18 -13 2 -5 8 -7 13 -3 5 3 9 0 9 -6 0 -6 5 -8 10 -5 5 3 10 2 10 -3
0 -5 8 -12 18 -16 9 -3 26 -11 37 -18 60 -40 101 -62 109 -60 4 2 16 -6 26
-18 9 -11 25 -20 34 -20 9 0 16 -5 16 -11 0 -5 5 -7 10 -4 5 3 10 1 10 -4 0
-6 6 -11 14 -11 8 0 16 -3 18 -8 2 -4 28 -20 58 -35 30 -15 51 -27 46 -27 -6
0 15 -12 45 -27 29 -15 56 -29 59 -32 3 -3 15 -12 28 -18 12 -7 32 -19 44 -25
13 -7 34 -21 47 -30 13 -10 30 -18 39 -18 8 0 22 -8 31 -17 9 -10 21 -19 28
-20 6 -1 28 -14 48 -28 21 -13 41 -22 46 -19 5 3 9 0 9 -6 0 -6 8 -13 18 -17
9 -3 24 -12 32 -19 8 -7 22 -14 30 -16 8 -2 20 -7 27 -13 30 -24 40 -30 53
-33 8 -2 22 -9 30 -16 8 -7 27 -17 43 -24 15 -6 27 -16 27 -22 0 -6 4 -9 9 -6
5 3 19 -2 32 -12 33 -24 57 -37 109 -63 25 -13 51 -29 58 -36 7 -7 19 -13 26
-13 7 0 21 -8 32 -19 11 -10 31 -22 45 -26 26 -8 82 -45 87 -58 2 -4 8 -5 13
-1 5 3 9 0 9 -7 0 -7 3 -10 6 -6 4 3 31 -9 60 -28 30 -19 59 -35 64 -35 6 0
10 -5 10 -11 0 -5 4 -7 10 -4 5 3 10 2 10 -3 0 -6 14 -15 30 -21 17 -5 30 -15
30 -21 0 -6 4 -9 9 -5 5 3 27 -6 48 -21 21 -14 48 -30 61 -35 12 -5 22 -13 22
-19 0 -6 4 -9 9 -6 5 3 20 -3 34 -14 14 -11 30 -20 36 -20 6 0 22 -10 37 -22
14 -13 29 -23 32 -23 25 -2 51 -18 46 -28 -4 -7 -4 -9 0 -5 5 4 26 -4 47 -18
21 -13 43 -24 49 -24 5 0 10 -5 10 -11 0 -5 4 -7 10 -4 5 3 10 2 10 -4 0 -6
11 -13 25 -17 14 -3 23 -9 21 -13 -3 -4 5 -8 17 -8 12 -1 23 -7 25 -13 2 -5
10 -10 18 -10 8 0 14 -3 14 -7 0 -5 10 -13 23 -18 44 -21 112 -60 125 -73 13
-11 27 -16 45 -13 4 0 7 -6 7 -14 0 -8 3 -14 8 -13 14 3 81 -33 110 -60 7 -7
18 -10 23 -7 5 4 9 1 9 -4 0 -6 7 -11 15 -11 8 0 15 -5 15 -11 0 -5 5 -7 10
-4 6 3 10 1 10 -5 0 -6 4 -8 10 -5 6 3 10 2 10 -3 0 -4 20 -19 45 -31 24 -12
47 -26 50 -32 4 -5 15 -9 26 -9 13 0 18 -4 13 -12 -5 -8 -2 -9 9 -5 11 4 17 1
17 -8 0 -8 3 -14 8 -13 11 2 45 -14 71 -34 13 -10 27 -15 32 -12 5 3 9 0 9 -5
0 -6 7 -11 16 -11 9 0 12 -5 8 -12 -4 -6 -3 -8 4 -4 6 3 18 -1 26 -10 9 -8 16
-12 16 -7 0 4 4 3 8 -4 4 -7 27 -20 50 -31 23 -10 39 -22 35 -25 -3 -4 1 -7
10 -7 9 0 19 0 22 0 3 0 14 -9 25 -20 12 -12 25 -18 30 -15 6 4 10 2 10 -3 0
-5 17 -17 38 -28 20 -10 39 -22 42 -26 3 -3 12 -8 20 -10 8 -2 20 -7 27 -13
30 -24 40 -30 53 -33 8 -2 16 -7 18 -12 4 -12 62 9 62 23 0 6 3 7 6 4 4 -4 19
2 34 13 15 11 39 24 54 30 14 5 26 15 26 21 0 6 7 8 15 5 9 -3 18 1 21 9 4 8
10 12 15 9 5 -3 9 -1 9 5 0 6 11 13 25 17 14 3 25 10 25 14 0 4 11 11 25 14
14 4 25 11 25 17 0 6 5 7 10 4 6 -3 10 -1 10 5 0 6 5 8 10 5 6 -3 10 -1 10 4
0 6 6 11 14 11 7 0 19 7 26 15 7 8 16 13 20 10 5 -3 10 -2 12 3 4 9 126 82
139 82 5 0 9 5 9 11 0 5 5 7 10 4 6 -3 10 -1 10 5 0 6 5 8 10 5 6 -3 10 -2 10
3 0 5 14 15 31 22 17 7 37 19 45 27 7 8 23 15 33 16 11 0 18 4 16 7 -2 4 14
14 35 24 22 10 40 22 40 27 0 6 5 7 10 4 6 -3 10 -1 10 6 0 7 3 10 6 6 4 -3
26 7 50 23 23 17 47 30 52 30 5 0 15 7 22 15 7 8 16 12 21 9 5 -3 9 0 9 5 0 6
6 11 14 11 8 0 16 3 18 8 2 4 24 17 51 30 26 13 47 28 47 33 0 5 3 9 8 8 15
-2 52 14 52 23 0 5 5 6 10 3 6 -3 10 -2 10 3 0 5 16 17 35 26 19 9 37 21 40
26 4 6 11 8 16 5 5 -4 9 -2 9 3 0 4 16 14 35 22 19 8 35 17 35 21 0 4 8 9 18
13 9 3 40 19 67 35 28 17 65 38 83 47 17 9 32 21 32 27 0 6 3 7 6 4 4 -4 19 2
34 13 16 11 33 20 39 20 6 0 11 5 11 11 0 6 6 9 12 7 7 -3 21 3 31 12 10 10
39 28 65 41 26 13 49 26 52 29 3 3 25 16 50 29 25 14 47 27 50 31 3 3 20 12
38 19 17 8 32 18 32 23 0 5 5 6 10 3 6 -3 10 -2 10 3 0 8 11 14 43 20 4 1 16
11 27 22 11 11 27 20 35 20 8 0 15 5 15 10 0 6 5 10 11 10 6 0 23 9 39 20 15
11 30 17 34 13 3 -3 6 -1 6 5 0 6 9 14 21 17 12 4 37 18 56 31 20 13 40 21 46
17 5 -3 7 -1 4 4 -4 6 6 16 23 22 17 5 30 15 30 20 0 6 3 10 8 9 7 -2 53 21
97 49 11 7 34 19 50 27 17 8 39 23 50 33 11 11 25 18 32 16 6 -2 17 2 25 10
18 18 61 42 71 39 4 -1 7 3 7 9 0 6 7 8 16 5 8 -3 13 -2 10 3 -5 8 19 23 29
18 2 -1 11 7 19 18 9 11 16 16 16 11 0 -5 7 -3 15 4 21 17 76 49 98 56 9 4 17
10 17 15 0 5 7 9 15 9 8 0 15 5 15 11 0 5 4 8 10 4 5 -3 18 3 30 15 11 11 20
17 20 14 0 -4 6 -1 13 5 8 6 17 8 20 4 4 -3 7 -1 7 6 0 10 27 25 55 31 6 1 14
8 18 16 5 8 12 12 18 9 5 -4 9 -1 9 4 0 6 7 11 15 11 9 0 18 7 22 16 3 8 12
13 19 10 8 -3 14 -1 14 5 0 6 5 7 10 4 6 -3 13 1 16 10 4 9 13 14 21 11 8 -3
12 -2 9 3 -3 5 12 16 34 25 22 9 40 20 40 26 0 5 3 9 8 8 14 -3 72 28 65 35
-6 6 13 10 20 5 2 -2 11 5 21 15 10 9 22 15 27 12 5 -4 9 -2 9 3 0 5 15 17 33
26 17 8 45 24 61 35 17 11 33 18 38 15 4 -3 8 0 8 6 0 6 17 18 38 27 20 8 39
19 42 23 3 5 12 10 20 12 8 2 21 11 28 21 7 9 18 15 23 12 5 -4 9 -1 9 5 0 6
4 9 9 5 5 -3 17 2 25 11 9 8 16 12 16 7 0 -4 4 -3 8 3 4 6 20 17 36 25 16 8
36 25 45 39 11 17 12 22 3 16 -11 -7 -12 -4 -5 10 9 20 9 82 -1 91 -3 3 -1 13
4 22 5 10 5 23 1 30 -5 7 -5 28 -1 47 5 21 4 34 -2 34 -7 0 -7 5 -1 12 5 7 8
24 6 38 -6 41 -6 44 0 71 3 14 2 32 -3 38 -4 7 -4 28 0 47 5 20 4 34 -2 34 -5
0 -6 6 -2 12 9 14 9 87 0 95 -3 3 -1 13 4 22 5 10 5 23 1 30 -5 7 -5 28 -1 47
5 21 4 34 -2 34 -7 0 -7 5 -1 13 5 6 8 23 6 37 -5 31 -4 50 1 75 2 11 -1 28
-6 39 -7 13 -7 16 1 12 8 -5 8 0 1 18 -5 14 -6 28 -1 30 13 9 5 51 -10 51 -8
0 -23 -8 -33 -17 -11 -10 -25 -18 -32 -18 -7 0 -14 -3 -16 -7 -1 -5 -21 -17
-43 -28 -22 -11 -42 -22 -45 -26 -3 -3 -32 -21 -65 -40 -33 -19 -67 -38 -76
-44 -28 -17 -104 -58 -109 -58 -3 -1 -14 -9 -24 -19 -11 -10 -26 -18 -33 -18
-7 0 -13 -4 -13 -10 0 -5 -5 -10 -11 -10 -6 0 -24 -9 -40 -21 -16 -11 -29 -17
-29 -14 0 4 -7 -1 -16 -9 -8 -9 -21 -16 -29 -16 -7 0 -15 -4 -17 -9 -1 -5 -30
-23 -63 -40 -33 -17 -56 -31 -51 -31 5 0 -17 -14 -48 -30 -31 -17 -71 -43 -87
-58 -17 -15 -34 -28 -37 -28 -25 -5 -52 -18 -52 -24 0 -4 -18 -15 -40 -25 -22
-10 -45 -24 -51 -31 -6 -8 -15 -12 -19 -9 -4 3 -13 -2 -20 -10 -7 -8 -19 -15
-26 -15 -8 0 -14 -3 -14 -7 0 -5 -10 -13 -23 -19 -52 -24 -143 -78 -149 -88
-4 -6 -8 -7 -8 -3 0 5 -13 -1 -29 -12 -16 -12 -34 -21 -40 -21 -6 0 -11 -4
-11 -8 0 -5 -16 -14 -35 -22 -19 -8 -35 -17 -35 -21 0 -4 -8 -9 -17 -12 -10
-3 -40 -20 -68 -37 -27 -17 -62 -36 -77 -42 -16 -7 -28 -16 -28 -21 0 -4 -4
-5 -10 -2 -5 3 -10 1 -10 -4 0 -6 -7 -11 -15 -11 -8 0 -15 -3 -15 -8 0 -4 -20
-16 -45 -27 -25 -11 -45 -23 -45 -27 0 -5 -6 -8 -14 -8 -7 0 -19 -7 -26 -15
-7 -8 -16 -13 -20 -10 -4 3 -13 -2 -20 -10 -7 -8 -19 -15 -26 -15 -8 0 -14 -4
-14 -9 0 -5 -10 -11 -23 -15 -12 -3 -31 -13 -43 -23 -11 -10 -26 -19 -34 -21
-8 -2 -18 -9 -22 -15 -4 -7 -8 -7 -8 -2 0 6 -4 4 -9 -4 -5 -8 -17 -16 -27 -17
-9 -2 -20 -7 -23 -12 -3 -5 -21 -15 -38 -23 -18 -8 -33 -18 -33 -22 0 -5 -4
-5 -10 -2 -5 3 -10 2 -10 -3 0 -5 -26 -22 -57 -38 -32 -15 -64 -34 -71 -41 -7
-7 -20 -13 -28 -13 -8 0 -14 -4 -14 -9 0 -5 -11 -12 -25 -15 -14 -4 -25 -11
-25 -16 0 -6 -9 -10 -20 -10 -11 0 -20 -4 -20 -9 0 -5 -13 -14 -30 -21 -16 -7
-30 -16 -30 -21 0 -5 -3 -9 -7 -8 -16 2 -53 -14 -53 -22 0 -5 -5 -9 -11 -9 -6
0 -31 -14 -56 -30 -25 -17 -47 -29 -50 -26 -3 2 -16 -5 -30 -17 -13 -12 -27
-21 -29 -19 -3 2 -16 -6 -31 -18 -14 -11 -32 -20 -39 -20 -8 0 -14 -5 -14 -11
0 -5 -4 -7 -10 -4 -5 3 -10 1 -10 -4 0 -6 -7 -11 -15 -11 -8 0 -15 -4 -15 -10
0 -5 -4 -10 -9 -10 -14 0 -134 -71 -143 -84 -4 -6 -8 -7 -8 -2 0 5 -7 3 -15
-4 -8 -7 -15 -10 -15 -7 0 3 -12 -5 -26 -18 -15 -14 -30 -23 -34 -20 -4 2 -17
-5 -28 -16 -12 -11 -22 -17 -22 -14 0 3 -12 -2 -26 -12 -34 -22 -83 -50 -114
-65 -14 -7 -27 -15 -30 -19 -6 -7 -53 -33 -61 -34 -3 0 -18 -9 -33 -20 -14
-11 -29 -18 -33 -17 -3 2 -9 0 -12 -5 -9 -12 -42 -32 -73 -44 -16 -6 -28 -15
-28 -19 0 -9 -43 -26 -47 -19 -1 2 -9 -5 -17 -16 -9 -11 -16 -15 -16 -10 0 6
-3 6 -8 0 -12 -18 -99 -65 -106 -58 -3 3 -6 1 -6 -5 0 -7 -20 -22 -45 -34 -24
-12 -42 -25 -39 -30 3 -4 -1 -5 -9 -2 -8 3 -20 -2 -27 -10 -7 -9 -16 -13 -21
-10 -5 3 -9 0 -9 -7 0 -7 -3 -10 -6 -6 -4 3 -15 -4 -25 -16 -11 -14 -18 -17
-19 -8 0 7 -6 11 -14 8 -8 -3 -17 1 -20 9 -3 8 -12 14 -21 14 -8 0 -15 5 -15
10 0 6 -6 10 -14 10 -8 0 -22 7 -30 16 -9 8 -16 13 -16 9 0 -3 -13 3 -29 14
-16 12 -34 21 -40 21 -6 0 -11 5 -11 10 0 6 -7 10 -15 10 -8 0 -15 5 -15 11 0
5 -4 7 -10 4 -5 -3 -10 -1 -10 4 0 6 -9 11 -20 11 -11 0 -20 4 -20 8 0 4 -25
20 -55 36 -30 15 -55 32 -55 37 0 5 -3 8 -7 7 -12 -4 -73 26 -73 34 0 5 -5 8
-12 8 -6 0 -19 6 -27 14 -9 8 -23 16 -31 18 -8 2 -23 11 -34 21 -11 9 -26 17
-33 17 -7 0 -13 5 -13 11 0 5 -4 7 -10 4 -6 -3 -10 -1 -10 5 0 6 -4 8 -10 5
-5 -3 -10 -2 -10 3 0 6 -11 13 -25 16 -14 4 -25 11 -25 16 0 6 -7 10 -15 10
-8 0 -24 9 -35 20 -12 12 -25 18 -30 15 -6 -4 -10 -3 -10 2 0 4 -18 17 -40 27
-22 11 -40 23 -40 28 0 5 -4 7 -9 3 -5 -3 -13 0 -17 6 -3 6 -26 20 -50 31 -24
10 -44 23 -44 28 0 6 -3 9 -7 8 -5 0 -19 4 -33 10 -14 6 -21 11 -15 11 5 1
-18 14 -51 31 -34 16 -67 36 -74 45 -7 8 -21 15 -31 15 -11 0 -19 3 -19 8 0 4
-15 14 -32 21 -18 8 -39 21 -46 28 -8 7 -18 11 -23 8 -5 -4 -9 -2 -9 3 0 5
-12 15 -27 22 -16 8 -40 23 -55 33 -16 10 -28 15 -28 12 0 -4 -7 0 -15 7 -26
23 -40 33 -55 36 -8 2 -22 10 -30 17 -8 7 -22 15 -30 17 -8 2 -20 8 -27 13
-29 24 -40 30 -52 33 -7 1 -20 9 -28 17 -8 9 -19 13 -24 10 -5 -4 -9 -1 -9 5
0 6 -4 8 -10 5 -5 -3 -10 1 -10 9 0 14 -11 18 -36 15 -4 0 -10 3 -13 8 -11 17
-78 53 -84 46 -4 -3 -7 -1 -7 6 0 7 -13 17 -30 22 -17 6 -30 15 -30 19 0 5
-10 12 -22 15 -13 4 -38 19 -57 33 -19 14 -31 19 -26 11 4 -8 -3 -5 -16 7 -13
11 -45 31 -71 45 -27 13 -48 28 -48 32 0 5 -4 5 -10 2 -5 -3 -10 -1 -10 4 0 6
-7 11 -15 11 -8 0 -15 5 -15 11 0 5 -4 8 -8 5 -5 -3 -19 4 -31 15 -12 11 -26
17 -31 14 -6 -3 -10 -2 -10 3 0 7 -33 28 -112 69 -15 8 -30 19 -33 24 -4 5
-11 7 -16 4 -5 -4 -9 -1 -9 5 0 6 -4 9 -8 6 -5 -3 -14 4 -22 14 -8 10 -17 17
-21 14 -5 -3 -17 4 -29 16 -12 12 -20 15 -20 7 0 -6 -5 -4 -11 6 -5 9 -17 17
-24 17 -8 0 -24 9 -35 20 -12 12 -25 18 -29 15 -5 -2 -15 2 -22 11 -7 9 -22
20 -34 25 -11 5 -42 22 -70 39 -27 17 -66 38 -85 48 -19 9 -41 23 -48 30 -7 6
-18 12 -24 12 -6 0 -17 8 -25 18 -8 9 -11 11 -7 3 7 -13 -55 26 -67 42 -3 5
-8 8 -10 6 -2 -1 -14 1 -27 5 -19 6 -21 10 -11 22 6 8 8 14 3 14 -8 0 -12
1667 -4 1695 1 6 1 12 0 15 -6 15 -5 608 2 622 4 9 5 19 1 21 -6 4 -9 1148 -4
1227 1 8 22 26 49 40 26 14 53 30 60 37 7 7 20 13 28 13 8 0 14 4 14 9 0 5 8
11 18 14 22 8 97 50 117 67 8 7 15 9 15 4 0 -5 4 -4 8 2 4 6 27 21 52 35 25
13 47 26 50 29 6 6 86 50 117 65 13 5 23 13 23 18 0 4 7 7 15 7 8 0 15 5 15
11 0 5 4 8 9 5 5 -3 14 0 19 7 6 7 27 19 47 27 19 7 35 17 35 21 0 3 14 12 30
19 17 7 30 17 30 22 0 5 4 7 9 4 5 -3 19 2 32 12 13 10 38 26 54 34 65 32 100
53 103 61 2 4 10 7 18 7 8 0 17 7 21 16 3 8 12 13 19 10 8 -3 14 -1 14 3 0 5
14 14 30 20 17 5 30 15 30 22 0 7 3 9 7 6 3 -4 11 -3 17 2 6 5 38 24 71 42 33
18 62 35 65 38 5 6 20 15 103 60 29 16 68 38 87 50 19 11 44 25 55 31 11 6 38
21 60 35 22 14 58 35 80 46 22 12 43 27 47 33 4 6 8 7 8 2 0 -5 9 -1 20 9 11
10 20 15 20 11 0 -4 16 5 35 20 19 14 35 23 35 20 0 -4 10 2 22 13 11 11 24
18 28 16 5 -3 11 2 14 11 3 8 9 13 13 11 5 -2 20 3 35 12 14 9 53 31 85 50 32
18 61 38 64 43 3 5 15 10 27 11 12 0 24 7 26 14 3 7 12 13 19 13 8 0 20 7 27
15 7 8 16 12 21 9 5 -3 12 1 15 9 3 9 17 18 32 22 15 4 30 12 34 18 4 7 11 12
15 12 10 1 56 26 63 34 3 3 31 20 62 36 32 17 58 34 58 38 0 5 4 6 9 3 4 -3
16 3 26 14 10 11 21 17 25 15 4 -3 18 3 31 13 32 23 57 38 99 60 75 40 105 57
118 70 7 6 20 12 28 12 8 0 14 4 14 8 0 4 12 13 28 20 31 14 104 54 112 62 4
4 39 24 95 54 11 6 22 13 25 16 12 12 73 40 88 40 9 0 28 9 42 20 14 11 31 20
38 20 6 0 12 5 12 10 0 6 6 10 14 10 8 0 22 7 30 16 9 8 16 13 16 9 0 -4 12 3
26 14 15 11 30 18 35 15 5 -3 9 -1 9 5 0 6 17 18 38 28 20 9 40 21 44 27 3 5
14 11 24 12 9 2 20 6 23 11 3 4 24 17 46 28 22 11 42 23 45 26 3 3 21 14 40
24 19 10 37 21 40 24 6 8 53 29 60 27 3 0 16 8 28 20 12 12 40 30 62 40 22 10
40 22 40 25 0 4 11 10 25 13 14 4 25 11 25 17 0 6 4 8 9 4 5 -3 16 2 24 10 9
8 27 19 42 25 14 5 23 14 20 20 -3 5 -1 10 6 10 7 0 -7 10 -32 23 -51 27 -93
51 -165 95 -28 18 -55 32 -59 32 -4 0 -26 13 -49 28 -22 15 -58 36 -78 45 -21
10 -38 22 -38 28 0 6 -4 8 -9 5 -5 -3 -14 1 -21 9 -7 8 -18 15 -24 15 -7 0
-18 6 -24 13 -7 6 -16 12 -20 12 -9 1 -55 26 -62 34 -3 3 -14 11 -25 17 -89
47 -111 60 -115 65 -3 3 -19 12 -37 19 -17 8 -29 18 -27 22 3 4 -4 8 -15 8
-12 0 -21 5 -21 10 0 6 -3 9 -7 8 -5 -1 -18 3 -30 10 -13 7 -23 9 -23 5z"/>
<path d="M4996 7655 c-8 -8 -19 -15 -25 -15 -6 0 -11 -5 -11 -11 0 -5 -4 -8
-9 -5 -4 3 -23 -6 -41 -19 -19 -14 -40 -25 -47 -25 -7 0 -13 -4 -13 -10 0 -5
-5 -10 -10 -10 -11 0 -186 -101 -207 -120 -7 -6 -13 -8 -13 -4 0 4 -8 1 -17
-7 -10 -8 -31 -21 -48 -29 -16 -8 -32 -17 -35 -20 -8 -8 -62 -39 -95 -56 -16
-8 -43 -23 -60 -34 -16 -11 -52 -31 -80 -46 -27 -15 -52 -29 -55 -33 -3 -3
-31 -19 -62 -36 -32 -16 -58 -34 -58 -38 0 -5 -4 -5 -10 -2 -5 3 -10 2 -10 -4
0 -9 -22 -20 -45 -22 -5 0 -14 -7 -18 -15 -4 -8 -15 -14 -22 -14 -8 0 -15 -5
-15 -11 0 -5 -4 -8 -9 -5 -5 3 -14 -1 -21 -9 -7 -8 -16 -12 -21 -9 -5 3 -9 1
-9 -5 0 -5 -10 -13 -22 -17 -13 -4 -25 -10 -28 -14 -3 -4 -29 -19 -57 -34 -29
-14 -53 -31 -53 -37 0 -5 -4 -8 -9 -5 -5 3 -24 -5 -44 -18 -19 -13 -44 -27
-56 -31 -12 -3 -21 -11 -21 -16 0 -5 -5 -9 -11 -9 -6 0 -24 -9 -40 -21 -16
-11 -29 -17 -29 -12 0 4 -6 1 -13 -7 -7 -8 -19 -16 -27 -18 -8 -2 -19 -10 -23
-18 -4 -8 -17 -14 -27 -14 -10 0 -21 -4 -25 -9 -3 -5 -30 -22 -60 -37 -30 -16
-55 -32 -55 -37 0 -4 -4 -5 -10 -2 -5 3 -10 1 -10 -4 0 -6 -7 -11 -15 -11 -8
0 -15 -5 -15 -11 0 -5 -4 -8 -9 -5 -5 3 -14 -1 -21 -9 -7 -8 -17 -15 -22 -15
-6 0 -22 -9 -37 -19 -15 -11 -34 -21 -41 -23 -8 -2 -19 -7 -25 -11 -30 -23
-122 -80 -131 -81 -7 -1 -19 -8 -28 -15 -9 -7 -16 -10 -16 -5 0 5 -5 1 -11 -9
-6 -9 -14 -15 -20 -12 -5 4 -9 1 -9 -4 0 -6 -7 -11 -15 -11 -8 0 -15 -4 -15
-10 0 -5 -6 -10 -12 -10 -21 -1 -119 -66 -111 -73 11 -12 10 -167 -2 -167 -7
0 -7 -3 0 -8 12 -8 14 -57 3 -67 -4 -4 -3 -17 1 -29 7 -19 8 -55 1 -81 -1 -5
-1 -12 0 -15 7 -16 6 -62 -2 -66 -4 -3 -5 -11 -1 -17 10 -16 11 -187 1 -193
-5 -3 -5 -10 -2 -16 9 -15 12 -138 4 -143 -6 -3 -5 -50 0 -50 7 0 5 -57 -2
-61 -4 -3 -5 -11 -1 -17 12 -18 10 -197 -2 -197 -7 0 -6 -3 0 -8 12 -8 14 -57
3 -67 -4 -4 -3 -17 1 -29 7 -19 8 -55 1 -81 -1 -5 -1 -12 0 -15 7 -16 6 -62
-2 -66 -4 -3 -5 -11 -1 -17 12 -18 10 -197 -2 -197 -7 0 -6 -3 0 -8 9 -6 12
-42 5 -67 -1 -5 -1 -14 0 -20 8 -32 4 -225 -5 -225 -7 0 -7 -3 0 -8 9 -6 12
-42 5 -67 -1 -5 -1 -14 0 -20 8 -32 4 -225 -5 -225 -7 0 -7 -3 0 -8 9 -6 12
-42 5 -67 -1 -5 -1 -14 0 -20 8 -32 4 -225 -5 -225 -5 0 -5 -4 2 -8 6 -4 10
-19 9 -34 -2 -15 0 -27 3 -26 22 2 40 -5 59 -22 12 -12 22 -18 22 -15 0 3 18
-6 40 -20 22 -14 44 -25 50 -25 5 0 10 -3 10 -7 0 -5 10 -13 23 -18 36 -17
112 -60 117 -66 3 -3 32 -21 65 -39 33 -18 78 -44 100 -57 22 -13 48 -26 58
-30 9 -3 17 -8 17 -12 0 -4 16 -13 35 -21 19 -8 35 -17 35 -22 0 -4 7 -8 16
-8 8 0 12 -4 9 -10 -3 -6 1 -7 9 -4 9 3 16 1 16 -5 0 -6 6 -10 13 -8 6 1 11
-4 9 -11 -1 -8 2 -11 9 -7 6 4 24 -2 40 -14 15 -11 33 -21 39 -21 5 0 10 -5
10 -11 0 -5 5 -7 10 -4 6 3 10 2 10 -4 0 -6 11 -13 25 -17 14 -3 23 -9 21 -13
-3 -4 5 -8 17 -8 12 -1 23 -7 25 -13 2 -5 10 -10 18 -10 8 0 14 -5 14 -11 0
-5 5 -7 10 -4 6 3 10 2 10 -4 0 -5 9 -12 19 -16 11 -3 36 -17 56 -31 20 -13
33 -19 30 -12 -4 7 0 5 7 -4 8 -9 21 -18 29 -20 8 -2 21 -10 29 -18 8 -8 22
-16 30 -18 8 -2 18 -8 21 -14 3 -5 9 -9 13 -9 20 3 26 0 21 -9 -3 -5 2 -10 12
-10 10 0 29 -9 43 -20 14 -11 30 -20 36 -20 6 0 17 -7 24 -15 7 -8 16 -12 21
-9 5 3 9 1 9 -3 0 -8 32 -27 141 -83 16 -9 27 -19 23 -23 -4 -4 2 -7 14 -7 12
0 22 -5 22 -11 0 -5 4 -8 9 -5 5 3 14 -1 21 -9 7 -8 18 -15 24 -15 7 0 21 -8
32 -17 11 -10 26 -19 34 -21 8 -2 22 -10 31 -18 9 -8 19 -11 22 -7 4 3 7 1 7
-5 0 -7 5 -12 11 -12 6 0 17 -7 26 -15 8 -8 19 -13 24 -10 5 4 9 3 9 -2 0 -4
29 -24 65 -43 36 -19 65 -38 65 -42 0 -5 9 -8 20 -8 11 0 20 -3 20 -8 0 -4 18
-15 40 -25 22 -9 40 -21 40 -27 0 -5 7 -6 17 -3 10 4 14 2 10 -4 -3 -5 9 -16
28 -23 19 -8 35 -17 35 -20 0 -3 16 -12 35 -20 19 -8 35 -18 35 -22 0 -5 5 -6
10 -3 6 3 10 1 10 -5 0 -6 4 -9 9 -6 5 4 11 2 13 -4 1 -5 22 0 45 12 24 12 39
26 36 32 -3 6 -3 8 2 4 4 -4 17 -2 29 4 11 7 24 11 29 10 4 -1 7 3 7 8 0 6 6
10 13 10 7 0 23 9 35 20 12 12 22 18 22 14 0 -3 6 -2 13 4 11 9 38 25 137 81
25 13 48 30 52 35 4 6 8 7 8 3 0 -5 13 1 29 12 16 12 34 21 40 21 6 0 11 5 11
11 0 6 7 8 17 5 10 -4 14 -4 10 0 -10 10 52 46 65 38 6 -4 8 -3 5 3 -8 13 20
26 35 16 6 -3 8 -1 4 5 -3 6 6 17 21 24 43 22 76 42 95 56 9 8 23 14 30 16 8
1 27 12 42 24 16 12 32 19 37 16 5 -3 9 -1 9 4 0 5 17 17 38 28 20 10 48 28
61 39 16 13 22 15 17 5 -5 -9 -2 -8 7 3 8 9 18 17 23 17 5 0 26 11 45 25 20
13 39 21 43 18 3 -4 6 -2 6 4 0 5 18 18 40 28 22 10 40 21 40 24 0 4 20 15 45
26 25 11 45 23 45 28 0 4 7 7 15 7 8 0 15 5 15 11 0 5 4 8 9 5 5 -3 14 1 21 9
7 8 16 12 21 9 5 -3 9 -2 9 3 0 4 25 21 55 38 30 16 55 33 55 38 0 4 4 6 10 2
5 -3 18 2 28 12 10 10 25 19 32 21 8 2 26 12 41 23 15 10 32 19 37 19 6 0 17
6 24 13 7 6 30 21 51 32 20 11 37 23 37 27 0 5 3 7 8 6 4 -1 17 3 28 10 12 6
25 8 29 4 5 -4 6 -2 2 3 -3 6 28 28 69 50 41 22 74 43 74 47 0 4 9 8 20 8 11
0 20 5 20 10 0 6 4 10 10 10 9 0 69 34 140 79 14 8 29 16 33 16 5 0 14 8 21
17 7 10 16 15 19 11 4 -3 16 2 27 12 11 10 21 14 22 9 1 -5 4 16 7 46 4 32 2
58 -4 62 -7 5 -7 8 0 8 7 0 9 143 8 412 -2 332 -4 413 -15 412 -13 -1 -331
-192 -355 -213 -7 -6 -15 -11 -19 -11 -3 0 -17 -9 -31 -20 -14 -11 -29 -17
-34 -14 -5 3 -9 0 -9 -6 0 -6 -12 -16 -27 -23 -16 -6 -37 -20 -48 -30 -10 -9
-25 -15 -33 -12 -7 2 -10 0 -7 -5 3 -6 -1 -10 -9 -10 -9 0 -16 -4 -16 -8 0 -5
-12 -15 -27 -22 -16 -8 -41 -23 -58 -35 -16 -11 -32 -20 -35 -20 -16 -1 -60
-40 -60 -53 0 -8 -3 -12 -7 -9 -3 4 -13 1 -21 -5 -8 -7 -22 -17 -32 -23 -10
-5 -45 -26 -77 -45 -32 -19 -61 -33 -65 -32 -5 1 -8 -2 -8 -7 0 -5 -10 -13
-22 -17 -13 -3 -30 -12 -38 -19 -8 -7 -42 -27 -75 -45 -33 -18 -63 -38 -67
-44 -4 -6 -8 -8 -8 -3 0 8 -46 -19 -69 -41 -7 -7 -19 -11 -26 -8 -8 3 -16 -2
-19 -10 -3 -8 -12 -14 -21 -14 -8 0 -15 -5 -15 -11 0 -5 -4 -7 -10 -4 -5 3
-10 1 -10 -4 0 -6 -7 -11 -15 -11 -8 0 -15 -5 -15 -11 0 -5 -5 -7 -10 -4 -6 3
-13 -1 -16 -9 -3 -9 -10 -13 -15 -10 -5 3 -9 0 -9 -6 0 -6 -4 -9 -9 -6 -5 3
-14 -1 -21 -9 -7 -8 -16 -12 -21 -9 -5 3 -9 1 -9 -5 0 -6 -11 -13 -25 -17 -14
-3 -25 -10 -25 -15 0 -5 -7 -9 -15 -9 -8 0 -15 -4 -15 -9 0 -8 -34 -21 -46
-18 -3 1 -10 -6 -15 -16 -6 -9 -14 -15 -20 -12 -5 4 -9 1 -9 -4 0 -6 -7 -11
-15 -11 -8 0 -15 -5 -15 -12 0 -6 -3 -9 -6 -5 -4 3 -26 -7 -50 -24 -24 -17
-49 -27 -56 -23 -7 4 -8 3 -4 -4 4 -7 -3 -14 -19 -18 -14 -3 -25 -10 -25 -16
0 -5 -4 -6 -10 -3 -5 3 -10 2 -10 -2 0 -5 -17 -17 -37 -28 -21 -10 -45 -25
-53 -31 -8 -7 -22 -14 -30 -16 -8 -2 -17 -5 -20 -8 -10 -11 -132 -80 -141 -80
-5 0 -9 -4 -9 -10 0 -5 -5 -10 -10 -10 -6 0 -28 -11 -51 -25 -37 -24 -42 -25
-67 -11 -15 8 -46 25 -69 36 -24 12 -43 26 -43 32 0 5 -4 7 -9 4 -4 -3 -19 3
-31 14 -12 11 -27 17 -31 14 -5 -3 -9 0 -9 6 0 6 -4 8 -10 5 -5 -3 -10 1 -10
9 0 9 -8 16 -19 16 -10 0 -30 9 -44 20 -14 11 -31 20 -39 20 -7 0 -20 9 -28
19 -7 11 -17 18 -22 15 -4 -3 -8 0 -8 6 0 7 -7 10 -15 6 -8 -3 -15 -2 -15 2 0
4 -12 16 -27 26 -14 11 -23 14 -19 7 5 -7 -11 1 -34 18 -23 17 -46 28 -50 26
-4 -3 -11 2 -14 11 -3 8 -10 13 -15 10 -5 -4 -11 -3 -13 1 -1 5 -18 19 -37 32
-19 13 -31 17 -27 10 4 -8 -1 -5 -11 6 -10 11 -24 21 -30 22 -6 1 -34 16 -62
33 -29 16 -56 30 -61 30 -6 0 -10 4 -10 8 0 5 -21 19 -47 32 -27 13 -50 26
-53 30 -3 3 -21 14 -40 23 -19 10 -48 26 -65 37 -36 22 -101 59 -132 74 -13 6
-23 15 -23 19 0 5 -4 5 -10 2 -5 -3 -10 -1 -10 5 0 6 -4 8 -10 5 -5 -3 -10 -1
-10 5 0 6 -13 16 -30 21 -16 6 -30 16 -30 22 0 6 -3 8 -6 4 -3 -3 -27 8 -52
24 -25 16 -52 29 -60 29 -7 0 -10 5 -7 10 3 6 -2 10 -13 10 -10 0 -30 9 -42
20 l-24 21 0 855 c-1 471 2 860 5 866 7 11 41 32 82 50 15 7 27 16 27 21 0 4
5 5 10 2 6 -3 10 -1 10 4 0 6 4 11 10 11 5 0 39 18 75 40 36 22 70 40 75 40 6
0 10 4 10 10 0 5 11 12 25 16 13 3 29 12 36 20 6 8 15 12 19 9 4 -2 16 3 26
13 11 9 41 28 67 42 26 13 47 28 47 32 0 5 3 7 8 6 13 -3 62 25 62 35 0 6 3 7
7 4 3 -4 11 -3 17 2 22 18 206 121 216 121 5 0 10 4 10 8 0 5 18 17 40 27 23
10 50 27 62 37 11 9 24 15 28 13 4 -3 11 2 14 11 3 8 10 13 15 9 5 -3 13 0 16
5 4 6 17 16 28 21 12 5 36 18 52 29 17 10 46 27 65 37 19 9 37 19 40 22 7 8
79 48 113 63 15 7 27 16 27 20 0 4 5 8 11 8 6 0 24 9 40 21 16 11 29 17 29 14
0 -4 7 1 16 9 8 9 22 16 30 16 8 0 14 5 14 10 0 6 8 10 18 10 10 0 28 9 40 20
12 12 22 18 22 16 0 -3 24 9 53 27 28 19 59 37 67 41 8 4 24 12 35 19 120 71
184 107 193 107 7 0 12 3 12 8 0 7 50 39 61 38 4 -1 15 6 25 15 11 9 26 19 34
22 8 4 33 18 55 32 22 13 59 34 83 46 23 12 42 25 42 30 0 5 6 9 13 9 6 0 20
7 31 15 16 12 16 16 5 28 -15 15 -63 42 -91 53 -10 3 -18 11 -18 16 0 5 -4 7
-9 3 -5 -3 -13 0 -16 5 -4 6 -17 15 -28 20 -12 6 -40 21 -62 35 -22 14 -46 28
-54 32 -8 3 -63 35 -123 70 -60 35 -113 63 -119 63 -5 0 -9 5 -9 10 0 6 -6 10
-14 10 -8 0 -16 3 -18 8 -1 4 -33 23 -70 42 -38 19 -68 38 -68 43 0 4 -9 7
-20 7 -11 0 -20 5 -20 10 0 15 -47 12 -64 -5z"/>
<path d="M4971 5980 c-24 -16 -47 -28 -51 -25 -4 3 -10 -2 -14 -10 -3 -8 -10
-15 -16 -15 -5 0 -39 -18 -75 -40 -36 -22 -65 -36 -65 -32 0 4 -4 2 -8 -4 -8
-12 -83 -59 -94 -59 -4 0 -15 -7 -25 -15 -10 -8 -32 -22 -48 -30 -17 -8 -53
-29 -82 -47 -29 -18 -55 -33 -58 -33 -3 0 -24 -12 -48 -27 -23 -15 -46 -26
-50 -25 -4 1 -10 -5 -13 -13 -3 -8 -10 -12 -15 -9 -5 3 -9 0 -9 -6 0 -6 -4 -9
-9 -6 -5 3 -14 -1 -21 -9 -7 -8 -16 -12 -21 -9 -5 3 -12 -2 -15 -10 -3 -9 -10
-14 -15 -11 -10 7 -31 -30 -22 -39 10 -10 10 -167 0 -173 -4 -2 -5 -9 -1 -14
9 -16 13 -88 5 -94 -6 -3 -7 -50 -1 -50 7 0 5 -57 -2 -61 -4 -3 -5 -11 -1 -17
11 -17 11 -57 1 -63 -4 -3 -5 -11 -1 -17 11 -17 11 -57 1 -63 -4 -3 -5 -11 -1
-17 12 -18 10 -197 -2 -197 -7 0 -6 -3 0 -8 12 -8 14 -57 3 -67 -4 -4 -3 -17
1 -29 5 -11 7 -31 5 -43 -2 -13 1 -23 7 -23 5 0 8 -4 5 -8 -3 -5 10 -15 29
-22 19 -7 31 -18 28 -23 -3 -6 -1 -7 4 -4 6 4 27 -5 48 -18 20 -14 33 -20 30
-13 -4 7 2 3 12 -8 10 -12 28 -25 41 -29 12 -3 22 -11 22 -16 0 -6 4 -8 10 -4
5 3 18 -3 30 -15 11 -11 20 -18 20 -15 0 3 11 -2 25 -11 14 -9 25 -13 25 -9 0
3 7 0 15 -7 34 -31 43 -36 49 -31 3 4 6 1 6 -6 0 -7 5 -9 10 -6 6 3 10 1 10
-4 0 -6 7 -11 15 -11 8 0 15 -4 15 -10 0 -5 7 -10 14 -10 8 0 35 -13 59 -30
25 -16 49 -30 54 -30 5 0 19 -9 31 -20 12 -12 22 -18 22 -14 0 4 8 0 18 -8 9
-8 32 -21 50 -29 17 -8 32 -17 32 -21 0 -5 6 -8 14 -8 8 0 21 -6 28 -12 36
-34 52 -36 93 -15 22 11 43 25 47 31 4 6 8 7 8 3 0 -5 12 0 28 11 15 10 35 22
45 25 9 4 17 11 17 17 0 6 5 8 11 4 6 -3 14 -2 18 4 3 6 13 12 20 14 8 2 21 9
30 16 30 25 130 80 135 74 3 -3 6 0 6 6 0 7 7 12 15 12 8 0 15 5 15 11 0 5 5
7 10 4 6 -3 10 -2 10 3 0 5 8 12 18 16 9 3 33 15 52 26 68 40 75 44 83 42 4
-1 7 3 7 8 0 6 7 10 16 10 8 0 12 5 9 10 -5 9 8 12 32 9 3 0 10 6 15 15 5 9
13 14 19 11 5 -4 9 -1 9 4 0 6 4 11 9 11 5 0 32 14 60 31 46 29 51 36 51 68 1
20 2 105 3 188 1 97 -2 153 -8 153 -7 0 -7 3 0 8 6 4 10 95 10 237 0 142 -4
233 -10 237 -7 5 -6 8 0 8 7 0 10 16 8 38 -6 60 -13 83 -23 77 -6 -3 -10 -1
-10 6 0 7 -3 10 -6 6 -3 -3 -15 3 -27 13 -11 11 -24 17 -29 14 -4 -3 -8 -1 -8
4 0 5 -18 17 -40 27 -22 10 -40 23 -40 28 0 6 -3 7 -7 4 -3 -4 -12 -2 -20 4
-19 16 -75 48 -95 55 -10 4 -18 11 -18 16 0 5 -4 6 -10 3 -5 -3 -10 -2 -10 4
0 6 -11 13 -25 17 -14 3 -25 10 -25 15 0 5 -6 9 -14 9 -8 0 -22 7 -30 16 -9 8
-16 13 -16 9 0 -3 -12 2 -27 13 -16 11 -44 28 -63 39 -19 11 -62 35 -95 54
-33 18 -61 37 -63 41 -2 4 -8 8 -13 8 -5 0 -27 11 -48 24 -21 14 -42 22 -45
19 -3 -4 -6 -1 -6 5 0 21 -44 12 -89 -18z"/>
</g>
</svg>
