<svg version="1" xmlns="http://www.w3.org/2000/svg" width="1333.333" height="1333.333" viewBox="0 0 1000.000000 1000.000000"><path d="M460 1.1c-62.6 5.4-122.2 21.6-177.5 48.3-46 22.2-90.4 52.8-126 86.7l-10.6 10.3 106.2 106.2c58.5 58.5 106.5 106.1 106.7 105.9.2-.2-2.3-4.1-5.6-8.7-10.9-15.2-17.3-25.7-23.7-39.1-16.3-34.1-20.8-63.5-14.4-94.9 8.9-44.5 45.1-89.3 91.2-113.2 40.4-20.9 86.3-21 130.8-.2 31.4 14.6 52.8 31.3 98.3 76.8l28 27.9 59.8-59.8c32.9-32.9 59.8-59.9 59.8-59.9 0-.1-5.5-3.8-12.2-8.1C701.8 34.7 623.2 8.2 538.5 1c-13.9-1.1-64.6-1.1-78.5.1z"/><path d="M458.5 110.6c-7.1 1.2-22.8 5.5-30.1 8.4-38.3 15.2-74.8 53.5-87.3 91.7-4.2 12.9-6.4 27.2-5.6 36.3 1.9 22.5 11.4 49.1 25.1 70.5 13.2 20.7 12.4 18.9 12.4 28.7 0 10.1-2.2 16.2-6.5 17.8-1.4.5-2.5 1.6-2.5 2.3 0 .7-1.6 2.1-3.5 3-4.6 2.2-19.2 2.2-23.8 0-1.8-.9-45.3-43.6-96.7-94.9L146.5 181 131 196.5 115.5 212l54.6 54.8c36.4 36.4 55.1 55.8 56 58.1 1.4 3.7 1.7 17.8.5 22.7-.5 2-10.9 13.1-32.5 34.9-34.4 34.7-44 45.6-56.3 64-21.5 32.2-32.4 70.1-27.8 96.5 2.9 16.9 9.4 34.2 17.9 47.9 23.8 38.4 60.7 65 99.5 71.7 26.3 4.6 62.1-6 95.1-28.1 7.2-4.8 14.2-9.3 15.7-10.1 3.9-2 18.9-1.9 23.1.2 5 2.6 6.9 4.5 5.6 6-.8.9-.5 1.1 1 .7 5.6-1.4 8.6 19.9 4 28.8-1.3 2.6-35.9 38-96 98.1-51.6 51.6-93.9 94.2-93.9 94.6 0 .4 6.8 7.5 15 15.7l15 15 54.8-54.7c30.1-30 56.1-55.3 57.9-56.2 4.4-2.2 19.2-2.2 23.6 0 1.8.9 16.7 15 33.2 31.3 40.8 40.5 58.4 54.8 83.5 68 19.9 10.4 47 18.1 63.8 18.1 13.2 0 30.8-4 45.7-10.3 29.1-12.3 59.1-40.3 75.8-70.7 7.7-14 13.8-36.7 13.8-51.1 0-26.3-15-63.7-37.1-92.5-8-10.4-9-13-9-22.9 0-6.6.5-9.5 2-12.5 1.1-2.1 2.4-4.1 3-4.5 1.5-1 5.4 2.3 12.3 10.5 37.9 45.1 56.5 93.4 51.8 135.1-4.2 37.2-23.7 72.1-56.4 101-59.3 52.4-129.1 55.1-200.3 7.8-14.6-9.7-30.8-24.1-61.4-54.6-17.4-17.2-32-31.3-32.6-31.3-.5 0-27.6 26.7-60.2 59.3l-59.4 59.4 12.4 8C297.4 965 377 991.8 461.5 999c15.5 1.3 61.5 1.3 77 0 63.9-5.4 123-21.4 179-48.4 22.2-10.7 36.9-19.2 59.5-34.2 26.5-17.6 53.8-39.4 71.2-57.1l6.8-6.8L742.4 740C680.5 678.1 629 626.3 627.9 624.8l-2-2.7 4-2.1c5.2-2.6 19.5-2.9 24.4-.4 1.8.9 47.5 45.9 101.7 100l98.5 98.4 15.3-15.3 15.2-15.2-54.1-54c-29.7-29.7-54.9-55.7-56-57.7-2.5-4.9-2.7-20.3-.3-25.1.9-1.8 15.7-17.4 32.8-34.7 33.6-33.9 43.2-44.8 54.9-62.3 22.5-33.7 33.1-70.8 28.3-98.7-6.5-37.3-29.7-71.8-64.9-96.7-21.1-14.9-49.5-24.4-69.2-23-24 1.7-54.4 12.8-76.5 28.1-15.6 10.8-17.6 11.6-27.5 11.6-8.7 0-14.4-1.7-17.3-5.3-1.5-1.8 2.7-5.8 16.8-16.4 55.1-41.3 110.6-51.9 160-30.5 20.5 8.8 35.1 19.1 53.6 37.6 19.5 19.5 30.9 36.2 39.4 57.4 8.2 20.5 11.3 39.4 9.9 61.7-2.2 37.2-20.6 77.3-52.1 114-5.7 6.6-23.1 24.9-38.7 40.8l-28.5 28.8 59.1 59.1 59.1 59.1 7.5-11.4c43.9-67.7 70.6-147.2 77.7-231.4 1.3-15.5 1.3-61.5 0-77-10-118.4-58.7-226.3-139.5-309.3-7.7-8-17.6-17.6-22-21.5-7.3-6.5-7-6.1 3.3 4.4 6.1 6.3 11.2 11.9 11.2 12.4 0 1.1-218.1 219.5-219.2 219.5-.4 0-1.7-1.8-2.8-4-2.7-5.2-2.8-19.9-.2-24.6.9-1.8 43.7-45.4 95-97l93.3-93.7-15.3-15.4-15.3-15.3-54.5 54.4c-30 29.9-55.9 55.1-57.7 56-5 2.5-19.2 2.2-24.6-.5-2.6-1.4-16-13.9-34.7-32.4-32.8-32.6-37.7-37-51.6-47.6-23.3-17.5-47.4-29-72.4-34.4-7.5-1.6-27.8-2.7-33.5-1.9zm63.5 42.2c12.7 4.4 26.9 12 37.6 20.1 10 7.4 69.8 67.1 72.6 72.4 2.4 4.4 2.5 20.4.2 25-2.2 4.4-130 132.4-134.6 134.8-5.3 2.7-21.3 2.7-26.6 0-5.8-3-66.5-64.9-74.1-75.6-8.1-11.4-17.5-30.6-20.2-41.3-1.9-7.5-2-10.5-1.7-29.5.4-19.6.6-21.7 3-28.2 6-16.7 14.4-30.1 27.1-43.2 13.3-13.8 23.4-21.4 37.2-28.4 18.2-9 22.6-9.9 48.5-9.6 21.4.3 21.5.3 31 3.5zM268.8 366.9c4.6 2.4 133.4 131.4 135.6 135.8 2.4 4.8 2.2 20.2-.3 25.1-2 3.8-60.5 62.5-69.6 69.8-8.8 7.1-17.4 12.5-28.9 17.9-16.3 7.9-20 8.7-42.1 9.2-21.9.5-28.6-.5-41.7-6.1-15.6-6.7-23.4-12.2-37.9-26.6-18.4-18.2-27.7-32.5-34.1-53-2.1-6.9-2.3-9.3-2.3-28.5 0-18.9.2-21.8 2.3-29 3.1-11 12.9-30.2 20.9-41 7.8-10.5 67-70.7 72.3-73.5 5.1-2.8 20.6-2.8 25.8-.1zm498.7 9.5c8.2 2.3 26.7 11.4 34.1 16.9 22.9 16.9 42.8 43.8 49.6 67.2 2.1 7.2 2.3 9.9 2.2 28.5 0 19.4-.2 21-2.8 29.4-3.6 12-12.4 29.1-20.4 40.1-7.9 10.8-66.9 70.7-72.4 73.6-5.3 2.7-21.3 2.7-26.6 0-4.8-2.6-132.4-130.5-134.6-135-2.4-5.1-2.2-21 .3-25.9 2.7-5.1 63.8-65.6 73.8-72.9 15-11.1 34.3-20.3 47.8-22.9 9.9-1.9 40.9-1.2 49 1zM529 595c5.7 3 63.5 61.9 72.4 74 8.3 11.1 18.3 30.2 21.2 40.5 2.6 9.1 3.2 44.3.9 53.9-1.9 8.1-9.5 24.7-15.2 33.3-5.2 7.9-24 27.2-33.5 34.3-8.9 6.7-27.4 16-36.8 18.5-8.7 2.3-36.4 3.2-46.9 1.5-13.9-2.2-33.4-10.8-48.1-21.1-9.2-6.4-73.3-69.7-76.1-75.1-2.7-5.3-2.7-19.4 0-24.6 2-3.8 130.5-132.6 135.2-135.4 3.4-2.1 5.8-2.4 15.4-1.9 5 .2 9.3 1 11.5 2.1z"/><path d="M478.5 171.7c-17.8 2.4-36.7 13.1-54 30.7-15 15.2-22.5 28.2-25.9 44.8-4.8 23.4 1.4 45 20.5 70.9 6.2 8.4 63.3 66.9 65.4 66.9 1.3 0 127.5-126.2 127.5-127.6 0-2-58.5-59-67.3-65.6-21.1-15.7-45-22.9-66.2-20.1zM226.4 416.2c-34.2 34.7-42.6 45.5-50.6 65-8.4 20.7-7.5 43.6 2.4 63.3 13.9 27.5 41.4 50.7 66.5 56 25.2 5.4 50.8-2.7 77.3-24.3 4.1-3.3 19.9-18.5 35-33.6l27.5-27.6-63.5-63.5c-34.9-34.9-64.2-63.5-65.1-63.5-.9 0-14.1 12.7-29.5 28.2zM725.5 398.4c-13.9 3.2-26.5 9.3-40.7 19.7-8.7 6.4-68.1 64.6-67.5 66.3.2.5 28.8 29.4 63.7 64.2l63.5 63.4 28.9-28.8c31.4-31.3 40.8-42.5 48.1-57.6 6.7-13.8 8.9-22.9 8.9-36.6.1-12.7-1.1-18.6-5.9-30.1-5.2-12.4-11.8-21.5-24.9-34.4-13.5-13.4-22.9-19.5-37.1-24.1-9.9-3.2-27.5-4.2-37-2zM451.2 678.3C416.5 713 388 742 388 742.6c0 2.1 60.5 60.9 68.7 66.7 10.7 7.6 23.4 13.9 33.6 16.8 10.8 3 30 3.3 39.2.5 19-5.7 36.8-17.7 51.2-34.5 10.2-12 17.4-25.6 20.4-38.9 1.7-7.7 1.2-23.7-1.1-32.7-2.6-10.4-10.5-26.4-18.2-36.7-5.2-7-65.2-68.8-66.8-68.8-.3 0-29 28.5-63.8 63.3z"/><path d="M79.7 228.6C35 297.4 8.2 376.8 1 461.5-.3 477-.3 523 1 538.5c5.4 63.9 21.4 123 48.4 179 24.8 51.4 58.7 98.8 98.8 138 7.9 7.7 10.7 10.3 6.3 5.7l-8-8.2 108.3-108.3c59.5-59.5 108.2-108.6 108.2-109 0-.4-3.9 2.4-8.7 6.1-27.1 21.3-54 35-83.3 42.3-11.9 2.9-38.8 3.8-51.6 1.5-32.8-5.7-66-25.3-91.6-54.1-46.8-52.5-55-113.3-23.6-175.9 14.1-28.1 27.8-45.2 72.2-90 15.7-15.9 28.6-29.2 28.6-29.5C205 335.4 87.7 218 87 218c-.3 0-3.6 4.8-7.3 10.6z"/></svg>