<?xml version="1.0" encoding="UTF-8" standalone="no"?>
<svg id="svgElem" xmlns:rdf="http://www.w3.org/1999/02/22-rdf-syntax-ns#" xmlns="http://www.w3.org/2000/svg" shape-rendering="geometricPrecision" height="813.33" width="1220" version="1.1" xmlns:cc="http://creativecommons.org/ns#" xmlns:dc="http://purl.org/dc/elements/1.1/">
 <metadata id="metadata233">
  <rdf:RDF>
   <cc:Work rdf:about="">
    <dc:format>image/svg+xml</dc:format>
    <dc:type rdf:resource="http://purl.org/dc/dcmitype/StillImage"/>
   </cc:Work>
  </rdf:RDF>
 </metadata>
 <g id="polygons" stroke-linejoin="bevel" stroke-width="1px" transform="matrix(1.4449 0 0 1.4449 -275.26 -180.29)">
  <polygon id="polygon4" stroke="#161511" points="118 431 51 178 30 559" fill="#161511"/>
  <polygon id="polygon6" stroke="#1b140e" points="118 431 30 559 197 582" fill="#1b140e"/>
  <polygon id="polygon8" stroke="#1f1a15" points="118 431 197 582 244 510" fill="#1f1a15"/>
  <polygon id="polygon10" stroke="#1f1b16" points="118 431 244 510 229 426" fill="#1f1b16"/>
  <polygon id="polygon12" stroke="#1c1914" points="118 431 229 426 201 161" fill="#1c1914"/>
  <polygon id="polygon14" stroke="#191512" points="118 431 201 161 51 178" fill="#191512"/>
  <polygon id="polygon16" stroke="#281e15" points="923 667 807 628 816 776" fill="#281e15"/>
  <polygon id="polygon18" stroke="#251c13" points="923 667 816 776 976 812" fill="#251c13"/>
  <polygon id="polygon20" stroke="#1b120d" points="923 667 976 812 1179 742" fill="#1b120d"/>
  <polygon id="polygon22" stroke="#1f1913" points="923 667 1179 742 1171 600" fill="#1f1913"/>
  <polygon id="polygon24" stroke="#231c12" points="923 667 1171 600 973 514" fill="#231c12"/>
  <polygon id="polygon26" stroke="#2f261d" points="923 667 973 514 807 628" fill="#2f261d"/>
  <polygon id="polygon28" stroke="#10100e" points="351 15 15 77 182 74" fill="#10100e"/>
  <polygon id="polygon30" stroke="#161511" points="351 15 182 74 301 180" fill="#161511"/>
  <polygon id="polygon32" stroke="#21191a" points="351 15 301 180 515 221" fill="#21191a"/>
  <polygon id="polygon34" stroke="#201f1b" points="351 15 515 221 515 14" fill="#201f1b"/>
  <polygon id="polygon36" stroke="#2e241b" points="977 406 892 298 811 470" fill="#2e241b"/>
  <polygon id="polygon38" stroke="#302922" points="977 406 811 470 973 514" fill="#302922"/>
  <polygon id="polygon40" stroke="#241f19" points="977 406 973 514 1065 429" fill="#241f19"/>
  <polygon id="polygon42" stroke="#221f18" points="977 406 1065 429 1058 298" fill="#221f18"/>
  <polygon id="polygon44" stroke="#241f1b" points="977 406 1058 298 892 298" fill="#241f1b"/>
  <polygon id="polygon46" stroke="#000101" points="49 777 452 809 231 768" fill="#000101"/>
  <polygon id="polygon48" stroke="#1d140d" points="49 777 231 768 197 582" fill="#1d140d"/>
  <polygon id="polygon50" stroke="#1b130e" points="49 777 197 582 30 559" fill="#1b130e"/>
  <polygon id="polygon52" stroke="#27231a" points="346 434 229 426 244 510" fill="#27231a"/>
  <polygon id="polygon54" stroke="#272018" points="346 434 244 510 317 592" fill="#272018"/>
  <polygon id="polygon56" stroke="#332a21" points="346 434 317 592 429 497" fill="#332a21"/>
  <polygon id="polygon58" stroke="#2f2820" points="346 434 429 497 400 340" fill="#2f2820"/>
  <polygon id="polygon60" stroke="#29221d" points="346 434 400 340 229 426" fill="#29221d"/>
  <polygon id="polygon62" stroke="#11110f" points="1104 26 991 19 1021 181" fill="#11110f"/>
  <polygon id="polygon64" stroke="#100f0d" points="1104 26 1021 181 1134 150" fill="#100f0d"/>
  <polygon id="polygon66" stroke="#0c0c0a" points="1104 26 1134 150 1207 264" fill="#0c0c0a"/>
  <polygon id="polygon68" stroke="#1a130d" points="197 582 231 768 317 592" fill="#1a130d"/>
  <polygon id="polygon70" stroke="#2b2118" points="197 582 317 592 244 510" fill="#2b2118"/>
  <polygon id="polygon72" stroke="#231e1b" points="657 92 515 14 515 221" fill="#231e1b"/>
  <polygon id="polygon74" stroke="#2b2926" points="657 92 515 221 770 160" fill="#2b2926"/>
  <polygon id="polygon76" stroke="#21201b" points="657 92 770 160 822 24" fill="#21201b"/>
  <polygon id="polygon78" stroke="#292722" points="657 92 822 24 515 14" fill="#292722"/>
  <polygon id="polygon80" stroke="#161511" points="1179 742 1207 264 1201 364" fill="#161511"/>
  <polygon id="polygon82" stroke="#15140e" points="1179 742 1201 364 1171 600" fill="#15140e"/>
  <polygon id="polygon84" stroke="#1a1613" points="919 118 822 24 770 160" fill="#1a1613"/>
  <polygon id="polygon86" stroke="#231e1b" points="919 118 770 160 924 251" fill="#231e1b"/>
  <polygon id="polygon88" stroke="#1b1815" points="919 118 924 251 1021 181" fill="#1b1815"/>
  <polygon id="polygon90" stroke="#161411" points="919 118 1021 181 991 19" fill="#161411"/>
  <polygon id="polygon92" stroke="#181411" points="919 118 991 19 822 24" fill="#181411"/>
  <polygon id="polygon94" stroke="#11100d" points="51 178 15 77 30 559" fill="#11100d"/>
  <polygon id="polygon96" stroke="#130f0c" points="51 178 201 161 182 74" fill="#130f0c"/>
  <polygon id="polygon98" stroke="#0f0e0c" points="51 178 182 74 15 77" fill="#0f0e0c"/>
  <polygon id="polygon100" stroke="#000" points="452 809 976 812 648 795"/>
  <polygon id="polygon102" stroke="#040404" points="452 809 648 795 522 706" fill="#040404"/>
  <polygon id="polygon104" stroke="#130e08" points="452 809 522 706 317 592" fill="#130e08"/>
  <polygon id="polygon106" stroke="#2a1d14" points="452 809 317 592 231 768" fill="#2a1d14"/>
  <polygon id="polygon108" stroke="#1e1c17" points="301 180 201 161 229 426" fill="#1e1c17"/>
  <polygon id="polygon110" stroke="#24201b" points="301 180 229 426 392 281" fill="#24201b"/>
  <polygon id="polygon112" stroke="#272721" points="301 180 392 281 515 221" fill="#272721"/>
  <polygon id="polygon114" stroke="#181411" points="301 180 182 74 201 161" fill="#181411"/>
  <polygon id="polygon116" stroke="#2d2a23" points="515 221 392 281 400 340" fill="#2d2a23"/>
  <polygon id="polygon118" stroke="#322a23" points="515 221 400 340 534 452" fill="#322a23"/>
  <polygon id="polygon120" stroke="#38312b" points="515 221 534 452 758 324" fill="#38312b"/>
  <polygon id="polygon122" stroke="#2d2a25" points="515 221 758 324 770 160" fill="#2d2a25"/>
  <polygon id="polygon124" stroke="#302b23" points="534 452 400 340 429 497" fill="#302b23"/>
  <polygon id="polygon126" stroke="#352b21" points="534 452 429 497 522 706" fill="#352b21"/>
  <polygon id="polygon128" stroke="#3c3226" points="534 452 522 706 693 468" fill="#3c3226"/>
  <polygon id="polygon130" stroke="#3d3930" points="534 452 693 468 758 324" fill="#3d3930"/>
  <polygon id="polygon132" stroke="#3f3627" points="807 628 693 468 522 706" fill="#3f3627"/>
  <polygon id="polygon134" stroke="#362919" points="807 628 522 706 648 795" fill="#362919"/>
  <polygon id="polygon136" stroke="#0d0908" points="807 628 648 795 816 776" fill="#0d0908"/>
  <polygon id="polygon138" stroke="#30231b" points="807 628 973 514 811 470" fill="#30231b"/>
  <polygon id="polygon140" stroke="#3d3327" points="807 628 811 470 693 468" fill="#3d3327"/>
  <polygon id="polygon142" stroke="#201f1d" points="515 14 822 24 991 19" fill="#201f1d"/>
  <polygon id="polygon144" stroke="#362c27" points="758 324 693 468 811 470" fill="#362c27"/>
  <polygon id="polygon146" stroke="#302923" points="758 324 811 470 892 298" fill="#302923"/>
  <polygon id="polygon148" stroke="#272322" points="758 324 892 298 770 160" fill="#272322"/>
  <polygon id="polygon150" stroke="#191712" points="1201 364 1058 298 1065 429" fill="#191712"/>
  <polygon id="polygon152" stroke="#1a1712" points="1201 364 1065 429 1079 490" fill="#1a1712"/>
  <polygon id="polygon154" stroke="#1a1511" points="1201 364 1079 490 1171 600" fill="#1a1511"/>
  <polygon id="polygon156" stroke="#16130e" points="1201 364 1207 264 1058 298" fill="#16130e"/>
  <polygon id="polygon158" stroke="#010101" points="816 776 648 795 976 812" fill="#010101"/>
  <polygon id="polygon160" stroke="#2d2522" points="770 160 892 298 924 251" fill="#2d2522"/>
  <polygon id="polygon162" stroke="#292824" points="400 340 392 281 229 426" fill="#292824"/>
  <polygon id="polygon164" stroke="#33281c" points="429 497 317 592 522 706" fill="#33281c"/>
  <polygon id="polygon166" stroke="#221c16" points="924 251 892 298 1058 298" fill="#221c16"/>
  <polygon id="polygon168" stroke="#1a1915" points="924 251 1058 298 1021 181" fill="#1a1915"/>
  <polygon id="polygon170" stroke="#261f19" points="1079 490 1065 429 973 514" fill="#261f19"/>
  <polygon id="polygon172" stroke="#221912" points="1079 490 973 514 1171 600" fill="#221912"/>
  <polygon id="polygon174" stroke="#13140f" points="1134 150 1021 181 1058 298" fill="#13140f"/>
  <polygon id="polygon176" stroke="#12110d" points="1134 150 1058 298 1207 264" fill="#12110d"/>
 </g>
 <g id="circles" fill="#fff">
  <circle id="d0c" cy="431.34" cx="118.64" r="0"/>
  <circle id="d1c" cy="667.97" cx="923.84" r="0"/>
  <circle id="d2c" cy="15.001" cx="351.4" r="0"/>
  <circle id="d3c" cy="406.44" cx="977.41" r="0"/>
  <circle id="d4c" cy="777.83" cx="49.804" r="0"/>
  <circle id="d5c" cy="434.36" cx="346.44" r="0"/>
  <circle id="d6c" cy="26.128" cx="1104.5" r="0"/>
  <circle id="d7c" cy="582.41" cx="197.96" r="0"/>
  <circle id="d8c" cy="92.999" cx="657.74" r="0"/>
  <circle id="d9c" cy="742.56" cx="1179.3" r="0"/>
  <circle id="d10c" cy="118.66" cx="919.3" r="0"/>
  <circle id="d11c" cy="178.56" cx="51.541" r="0"/>
  <circle id="d12c" cy="809.34" cx="452.44" r="0"/>
  <circle id="d13c" cy="180.06" cx="301.61" r="0"/>
  <circle id="d14c" cy="221.92" cx="515.83" r="0"/>
  <circle id="d15c" cy="768.86" cx="231.1" r="0"/>
  <circle id="d16c" cy="452.24" cx="534.33" r="0"/>
  <circle id="d17c" cy="628.56" cx="807.59" r="0"/>
  <circle id="d18c" cy="14.823" cx="515.1" r="0"/>
  <circle id="d19c" cy="324.72" cx="758.5" r="0"/>
  <circle id="d20c" cy="364.3" cx="1201.3" r="0"/>
  <circle id="d21c" cy="776.02" cx="816.19" r="0"/>
  <circle id="d22c" cy="74.875" cx="182.27" r="0"/>
  <circle id="d23c" cy="470.86" cx="811.88" r="0"/>
  <circle id="d24c" cy="795.03" cx="648.96" r="0"/>
  <circle id="d25c" cy="160.19" cx="770.79" r="0"/>
  <circle id="d26c" cy="340.18" cx="400.82" r="0"/>
  <circle id="d27c" cy="559.65" cx="30.743" r="0"/>
  <circle id="d28c" cy="812.57" cx="976.81" r="0"/>
  <circle id="d29c" cy="497.5" cx="429.11" r="0"/>
  <circle id="d30c" cy="251.73" cx="924.12" r="0"/>
  <circle id="d31c" cy="490.62" cx="1080" r="0"/>
  <circle id="d32c" cy="468.81" cx="693.25" r="0"/>
  <circle id="d33c" cy="706.74" cx="522.44" r="0"/>
  <circle id="d34c" cy="150.33" cx="1134.4" r="0"/>
  <circle id="d35c" cy="181.32" cx="1021.7" r="0"/>
  <circle id="d36c" cy="592.92" cx="317.16" r="0"/>
  <circle id="d37c" cy="19.329" cx="991.32" r="0"/>
  <circle id="d38c" cy="426.55" cx="229.55" r="0"/>
  <circle id="d39c" cy="514.86" cx="973.29" r="0"/>
  <circle id="d40c" cy="77.292" cx="15.485" r="0"/>
  <circle id="d41c" cy="264.37" cx="1207.6" r="0"/>
  <circle id="d42c" cy="24.066" cx="822.66" r="0"/>
  <circle id="d43c" cy="281.63" cx="392.78" r="0"/>
  <circle id="d44c" cy="510.72" cx="244.43" r="0"/>
  <circle id="d45c" cy="161.58" cx="201.58" r="0"/>
  <circle id="d46c" cy="600.5" cx="1171.7" r="0"/>
  <circle id="d47c" cy="298.88" cx="892.01" r="0"/>
  <circle id="d48c" cy="298.42" cx="1058.9" r="0"/>
  <circle id="d49c" cy="429.77" cx="1065.9" r="0"/>
 </g>
</svg>
